<?xml version="1.0" encoding="UTF-8" standalone="no"?>
<!DOCTYPE svg PUBLIC "-//W3C//DTD SVG 1.1//EN" "http://www.w3.org/Graphics/SVG/1.1/DTD/svg11.dtd">
<!-- Created with Vectornator (http://vectornator.io/) -->
<svg height="100%" stroke-miterlimit="10" style="fill-rule:nonzero;clip-rule:evenodd;stroke-linecap:round;stroke-linejoin:round;" version="1.1" viewBox="0 0 110 110" width="100%" xml:space="preserve" xmlns="http://www.w3.org/2000/svg" xmlns:vectornator="http://vectornator.io" xmlns:xlink="http://www.w3.org/1999/xlink">
<defs/>
<g id="Layer-1" vectornator:layerName="Layer 1">
<path d="M34.5625 6.71429C27.5625 9.71429 22.2292 13.0476 18.5625 16.7143C14.8958 20.381 13.2292 22.5476 13.5625 23.2143C13.8958 23.881 15.7292 24.2143 19.0625 24.2143C22.3958 24.2143 28.3958 22.2143 37.0625 18.2143C45.7292 14.2143 51.8958 12.2143 55.5625 12.2143C59.2292 12.2143 65.5625 14.381 74.5625 18.7143C83.5625 23.0476 89.7292 25.0476 93.0625 24.7143C94.7292 24.5476 96.3958 24.381 98.0625 24.2143C96.3958 22.2143 94.7292 20.2143 93.0625 18.2143C89.7292 14.2143 86.0625 11.0476 82.0625 8.71429C78.0625 6.38095 74.3958 4.71429 71.0625 3.71429C67.7292 2.71429 62.5625 2.21429 55.5625 2.21429C48.5625 2.21429 41.5625 3.71429 34.5625 6.71429ZM38.5625 32.7143C28.2292 37.0476 21.5625 39.2143 18.5625 39.2143C15.5625 39.2143 12.7292 38.5476 10.0625 37.2143C8.72917 36.5476 7.39583 35.881 6.0625 35.2143C5.5625 37.0476 5.0625 38.881 4.5625 40.7143C3.5625 44.381 3.0625 47.2143 3.0625 49.2143C3.0625 51.2143 3.5625 52.5476 4.5625 53.2143C5.5625 53.881 7.72917 54.881 11.0625 56.2143C14.3958 57.5476 17.5625 58.0476 20.5625 57.7143C23.5625 57.381 29.2292 55.2143 37.5625 51.2143C45.8958 47.2143 51.7292 45.2143 55.0625 45.2143C58.3958 45.2143 64.8958 47.381 74.5625 51.7143C84.2292 56.0476 90.7292 58.2143 94.0625 58.2143C97.3958 58.2143 100.562 57.381 103.562 55.7143C106.562 54.0476 107.562 50.5476 106.562 45.2143C106.062 42.5476 105.562 39.881 105.062 37.2143C102.562 37.7143 100.062 38.2143 97.5625 38.7143C92.5625 39.7143 85.3958 38.0476 76.0625 33.7143C66.7292 29.381 60.7292 27.0476 58.0625 26.7143C55.3958 26.381 48.8958 28.381 38.5625 32.7143ZM38.0625 65.7143C28.0625 70.0476 21.3958 72.2143 18.0625 72.2143C14.7292 72.2143 11.5625 71.5476 8.5625 70.2143C7.0625 69.5476 5.5625 68.881 4.0625 68.2143C4.89583 70.5476 5.72917 72.881 6.5625 75.2143C8.22917 79.881 10.3958 83.7143 13.0625 86.7143C15.7292 89.7143 18.8958 90.881 22.5625 90.2143C26.2292 89.5476 31.8958 87.381 39.5625 83.7143C47.2292 80.0476 52.5625 78.2143 55.5625 78.2143C58.5625 78.2143 65.5625 80.5476 76.5625 85.2143C87.5625 89.881 94.5625 90.381 97.5625 86.7143C100.562 83.0476 102.729 79.7143 104.062 76.7143C105.396 73.7143 105.729 71.7143 105.062 70.7143C104.396 69.7143 102.896 69.881 100.562 71.2143C98.2292 72.5476 95.7292 73.2143 93.0625 73.2143C90.3958 73.2143 84.5625 71.0476 75.5625 66.7143C66.5625 62.381 60.5625 60.0476 57.5625 59.7143C54.5625 59.381 48.0625 61.381 38.0625 65.7143ZM40.5625 97.2143C34.8958 99.881 32.0625 101.548 32.0625 102.214C32.0625 102.881 33.8958 103.881 37.5625 105.214C41.2292 106.548 46.0625 107.381 52.0625 107.714C58.0625 108.048 64.0625 107.214 70.0625 105.214C73.0625 104.214 76.0625 103.214 79.0625 102.214C76.0625 100.714 73.0625 99.2143 70.0625 97.7143C64.0625 94.7143 59.0625 93.2143 55.0625 93.2143C51.0625 93.2143 46.2292 94.5476 40.5625 97.2143Z" fill="#000000" fill-rule="nonzero" opacity="1" stroke="none"/>
</g>
</svg>
