<?xml version="1.0" encoding="UTF-8" standalone="no"?>
<!DOCTYPE svg PUBLIC "-//W3C//DTD SVG 1.1//EN" "http://www.w3.org/Graphics/SVG/1.1/DTD/svg11.dtd">
<!-- Created with Vectornator (http://vectornator.io/) -->
<svg height="100%" stroke-miterlimit="10" style="fill-rule:nonzero;clip-rule:evenodd;stroke-linecap:round;stroke-linejoin:round;" version="1.1" viewBox="0 0 520 520" width="100%" xml:space="preserve" xmlns="http://www.w3.org/2000/svg" xmlns:xlink="http://www.w3.org/1999/xlink">
<defs/>
<g id="Untitled">
<g opacity="1">
<path d="M59.8807 120.119C57.2948 120.209 54.7791 119.248 52.9119 117.455C51.0447 115.662 49.9822 113.186 49.9705 110.6C49.9979 105.107 54.3924 100.639 59.8807 100.518L97.1227 100.518C102.525 100.83 106.814 105.189 107.033 110.6C106.795 115.904 102.435 120.092 97.1227 120.119L59.8807 120.119ZM319.221 45.1344L336.584 45.1344C341.111 44.9156 345.576 46.2828 349.205 49.0016C352.834 51.7243 355.4 55.6227 356.463 60.0286L362.064 82.0366C362.783 83.3218 363.877 84.3569 365.197 85.0054C367.662 86.2359 370.127 86.7984 373.26 87.9742L373.264 87.9742C374.635 88.5875 376.205 88.5875 377.576 87.9742L397.455 76.7752C401.334 74.4549 405.877 73.49 410.365 74.0252C414.853 74.5643 419.037 76.5721 422.263 79.74L434.638 91.67C437.919 94.6075 440.037 98.627 440.603 102.998C441.169 107.365 440.146 111.791 437.716 115.471L425.9 135.127C424.67 136.303 424.67 137.479 425.283 139.271L429.037 146.439C429.568 147.842 430.697 148.932 432.119 149.404L454.517 155.006C458.951 156.014 462.908 158.51 465.728 162.072C468.548 165.639 470.068 170.061 470.029 174.607L470.029 191.408L470.029 191.404C470.04 195.885 468.505 200.225 465.677 203.697C462.849 207.17 458.904 209.553 454.517 210.447L432.79 215.768C431.204 216.24 429.872 217.33 429.095 218.791C427.864 221.76 427.247 224.393 425.958 226.518C425.341 227.83 425.341 229.35 425.958 230.662L437.774 249.701C440.2 253.49 441.219 258.006 440.657 262.467C440.094 266.928 437.985 271.053 434.692 274.119L422.372 285.541C419.149 288.709 414.966 290.721 410.477 291.256C405.985 291.795 401.446 290.83 397.567 288.51L377.688 277.311L377.684 277.311C376.383 276.549 374.829 276.35 373.372 276.748L365.923 280.334C364.075 280.893 362.786 282.069 362.786 283.303L356.462 304.471C355.442 308.952 352.907 312.944 349.286 315.768C345.661 318.596 341.176 320.084 336.583 319.983L319.22 319.983C314.646 319.932 310.212 318.393 306.595 315.592C302.974 312.791 300.368 308.885 299.173 304.471L293.575 283.19C293.064 281.757 291.896 280.655 290.439 280.221C287.974 278.991 285.509 278.428 282.989 277.198C281.61 276.624 280.056 276.624 278.677 277.198L258.798 288.397C254.923 290.737 250.376 291.713 245.884 291.174C241.392 290.639 237.204 288.616 233.989 285.432L221.837 273.67C218.54 270.612 216.419 266.494 215.845 262.029C215.27 257.568 216.282 253.045 218.7 249.256L230.516 230.217L230.516 230.213C231.313 228.987 231.54 227.475 231.133 226.069C229.903 223.663 228.669 220.467 227.379 218.342C226.602 216.881 225.27 215.795 223.684 215.319L209.575 211.791C208.04 211.616 206.497 212.038 205.263 212.967C204.138 213.827 203.442 215.135 203.356 216.549L203.356 364.669C203.407 367.454 204.247 370.165 205.786 372.486C207.325 374.81 209.493 376.642 212.036 377.775C224.962 383.087 234.614 394.197 238.075 407.736C241.532 421.275 238.392 435.654 229.602 446.517C220.813 457.38 207.407 463.451 193.446 462.892C179.481 463.45 166.079 457.38 157.286 446.517C148.497 435.654 145.356 421.275 148.818 407.736C152.279 394.197 161.931 383.088 174.853 377.775C180.22 375.673 183.692 370.431 183.532 364.67L183.532 89.2098C183.532 83.7371 187.97 79.2996 193.446 79.2996C198.919 79.2996 203.357 83.7371 203.357 89.2098L203.357 148.124C203.306 149.725 204.009 151.26 205.263 152.268C206.556 153.046 208.111 153.268 209.575 152.882L224.47 149.296L224.47 149.3C225.845 149.081 227.006 148.171 227.548 146.889C228.787 144.397 229.834 141.811 230.685 139.163C231.298 137.635 231.298 135.928 230.685 134.401L218.869 115.362C216.482 111.702 215.475 107.311 216.018 102.975C216.56 98.6392 218.623 94.6353 221.838 91.6741L231.975 81.4831C233.268 80.7799 234.002 79.3581 233.823 77.8972L233.823 65.9712C233.303 52.0302 225.565 39.3692 213.397 32.5452C201.233 25.721 186.389 25.721 174.225 32.5452C162.057 39.3694 154.319 52.0292 153.799 65.9712L153.799 329.621C153.591 342.637 148.232 355.039 138.904 364.117C124.216 377.816 115.9 397.008 115.943 417.09C116.267 437.281 124.595 456.516 139.099 470.567C153.599 484.618 173.087 492.337 193.279 492.02C213.506 492.395 233.052 484.704 247.603 470.649C262.154 456.59 270.513 437.321 270.837 417.09C270.879 397.008 262.563 377.817 247.876 364.117C238.715 354.977 233.575 342.562 233.599 329.621L233.599 316.516C233.599 304.028 253.478 304.028 253.478 316.516L253.478 329.621C253.169 337.484 256.345 345.086 262.157 350.394C280.411 367.773 290.719 391.89 290.661 417.089C290.337 442.562 279.884 466.859 261.61 484.605C243.337 502.355 218.747 512.093 193.278 511.675C167.805 512.093 143.219 502.355 124.946 484.605C106.673 466.859 96.2162 442.562 95.8952 417.089C95.8366 391.89 106.141 367.773 124.399 350.394C130.212 345.086 133.388 337.484 133.079 329.621L133.079 65.9712C133.977 45.0802 145.645 26.1512 163.903 15.9552C182.161 5.76416 204.395 5.76416 222.653 15.9552C240.911 26.1502 252.575 45.0802 253.477 65.9712L253.477 70.7329L253.477 70.729C253.641 72.7329 254.797 74.522 256.559 75.4907C257.485 75.643 258.344 76.0727 259.02 76.7212L278.899 87.9202L278.903 87.9202C280.274 88.5373 281.84 88.5373 283.211 87.9202C285.805 87.2327 288.305 86.2366 290.661 84.9554C292.563 84.3968 293.18 83.1624 293.797 81.4281L299.399 59.9791C300.622 55.6627 303.231 51.8658 306.825 49.1741C310.414 46.4827 314.789 45.0452 319.278 45.0803L319.221 45.1344ZM317.991 68.3724L313.006 88.5874L313.006 88.5913C311.104 94.9546 306.276 100.032 300.014 102.255C296.26 103.486 293.182 105.279 290.045 106.454C283.745 109.548 276.318 109.318 270.221 105.837L251.576 95.1423C249.639 93.8493 247.057 94.1071 245.416 95.7595L238.584 102.869C236.736 104.045 236.736 106.455 237.967 108.806L248.776 126.669C250.62 129.31 251.686 132.415 251.854 135.63C251.885 138.896 251.256 142.134 250.006 145.15C248.307 148.197 246.866 151.38 245.694 154.669C244.788 157.97 242.819 160.884 240.096 162.958C237.721 165.349 234.709 167.005 231.416 167.716L210.92 172.478C208.674 172.919 207.096 174.951 207.221 177.236L206.604 187.373L206.608 187.373C206.717 189.58 208.194 191.478 210.303 192.134L231.416 197.736L231.416 197.732C237.99 199.193 243.373 203.896 245.693 210.22C246.873 213.505 248.314 216.689 250.006 219.74C252.764 225.904 252.303 233.029 248.775 238.783L238.248 256.646C236.885 258.485 237.154 261.06 238.862 262.579L245.694 269.692C247.436 271.118 249.865 271.36 251.854 270.31L270.221 259.669C276.318 256.188 283.744 255.958 290.045 259.051C293.006 260.583 296.123 261.782 299.342 262.637C305.865 264.766 310.955 269.919 313.006 276.469L317.99 296.684C318.513 298.938 320.611 300.47 322.92 300.27C326.424 300.829 329.998 300.829 333.502 300.27C335.611 300.255 337.416 298.755 337.814 296.684L343.416 276.469C345.287 269.926 350.119 264.645 356.463 262.188C359.877 261.399 363.197 260.255 366.373 258.774C372.678 255.688 380.1 255.919 386.197 259.388L404.228 270.083L404.232 270.083C406.166 271.379 408.748 271.118 410.388 269.469L417.837 262.918L417.837 262.915C419.287 261.274 419.556 258.903 418.509 256.981L407.923 238.555L407.927 238.555C404.146 232.883 403.677 225.629 406.693 219.516C407.986 216.27 409.447 213.094 411.064 209.996C412.099 206.832 413.962 204.004 416.466 201.805C418.966 199.61 422.013 198.125 425.286 197.508L445.782 191.907C447.837 191.567 449.372 189.844 449.478 187.766L450.372 177.852C450.279 175.641 448.794 173.731 446.677 173.094L425.564 167.492L425.568 167.492C419.107 165.895 413.779 161.352 411.173 155.226C409.884 151.641 408.036 148.676 406.806 145.707C403.79 139.598 404.259 132.34 408.036 126.668L418.622 108.805C419.942 106.922 419.603 104.344 417.837 102.867L411.173 95.7581C409.392 94.3753 406.978 94.137 404.958 95.1409L386.31 105.836C380.212 109.316 372.787 109.547 366.486 106.453C363.408 105.277 360.271 103.484 356.576 102.254C350.287 100.051 345.435 94.9727 343.525 88.5899L338.373 68.3709C337.705 66.2186 335.701 64.7615 333.447 64.7889L322.92 64.7889C320.713 64.9061 318.783 66.3084 317.99 68.3709L317.991 68.3724ZM59.8905 264.712C54.4022 264.591 50.0077 260.123 49.9803 254.634C49.992 252.045 51.0545 249.572 52.9217 247.779C54.7889 245.982 57.3045 245.021 59.8905 245.115L97.1325 245.115C102.445 245.138 106.804 249.326 107.043 254.634C106.824 260.04 102.535 264.4 97.1325 264.712L59.8905 264.712ZM59.8905 216.552C54.3827 216.431 49.9803 211.927 49.9803 206.415C49.992 203.829 51.0545 201.353 52.9217 199.56C54.7889 197.767 57.3045 196.806 59.8905 196.896L97.1325 196.896C102.445 196.923 106.804 201.111 107.043 206.415C106.851 211.849 102.558 216.239 97.1325 216.552L59.8905 216.552ZM59.8905 168.337C54.3827 168.216 49.9803 163.712 49.9803 158.2C50.0077 155.618 51.0741 153.153 52.9412 151.361C54.8045 149.571 57.3084 148.607 59.8904 148.681L97.1324 148.681C102.433 148.736 106.777 152.907 107.043 158.2C106.851 163.63 102.558 168.021 97.1324 168.337L59.8905 168.337Z" fill="#000000" fill-rule="nonzero" opacity="1" stroke="none"/>
<g opacity="1">
<path d="M333.961 234.552C337.614 229.997 336.879 223.349 332.325 219.7C308.899 200.924 308.848 165.303 332.325 146.483C336.868 142.842 337.618 136.194 333.961 131.631C330.313 127.076 323.66 126.346 319.109 129.994C285.136 157.228 285.074 208.907 319.109 236.192C323.66 239.841 330.308 239.106 333.961 234.556L333.961 234.552Z" fill="#000000" fill-rule="nonzero" opacity="1" stroke="none"/>
<path d="M351.217 215.062C355.772 218.711 362.42 217.98 366.069 213.426C369.722 208.871 368.987 202.223 364.433 198.574C354.527 190.633 354.507 175.578 364.433 167.622C368.976 163.981 369.726 157.333 366.069 152.77C362.421 148.215 355.768 147.485 351.217 151.133C330.768 167.524 330.725 198.636 351.217 215.062L351.217 215.062Z" fill="#000000" fill-rule="nonzero" opacity="1" stroke="none"/>
<path d="M388.697 172.523C394.533 172.523 399.263 177.258 399.263 183.089C399.263 188.925 394.533 193.655 388.697 193.655C382.862 193.655 378.131 188.924 378.131 183.089C378.131 177.257 382.862 172.523 388.697 172.523" fill="#000000" fill-rule="nonzero" opacity="1" stroke="none"/>
</g>
</g>
</g>
</svg>
