<?xml version="1.0" encoding="UTF-8" standalone="no"?>
<!DOCTYPE svg PUBLIC "-//W3C//DTD SVG 1.1//EN" "http://www.w3.org/Graphics/SVG/1.1/DTD/svg11.dtd">
<!-- Created with Vectornator (http://vectornator.io/) -->
<svg height="100%" stroke-miterlimit="10" style="fill-rule:nonzero;clip-rule:evenodd;stroke-linecap:round;stroke-linejoin:round;" version="1.1" viewBox="0 0 340 340" width="100%" xml:space="preserve" xmlns="http://www.w3.org/2000/svg" xmlns:xlink="http://www.w3.org/1999/xlink">
<defs/>
<g id="Layer-1">
<g opacity="1">
<g opacity="1">
<path d="M315.078 167.016L246.335 167.016L246.335 185.533C246.335 191.864 241.184 197.014 234.853 197.014L232.091 197.014L242.594 210.138C244.294 212.257 243.948 215.357 241.829 217.053C239.704 218.748 236.608 218.407 234.914 216.286L219.495 197.017L105.731 197.014C99.3993 197.014 94.2488 191.864 94.2488 185.533L94.2488 167.016L24.9194 167.016C22.2034 167.016 20 164.815 20 162.097C20 159.378 22.2034 157.177 24.9194 157.177L94.2547 157.177L94.2547 138.66C94.2547 132.329 99.4052 127.179 105.737 127.179L163.614 127.179L151.109 111.551L90.8532 111.554C88.1373 111.554 85.9339 109.352 85.9339 106.634C85.9339 103.916 88.1373 101.715 90.8532 101.715L153.47 101.715C153.825 101.715 154.175 101.758 154.506 101.829C154.584 101.845 154.66 101.882 154.735 101.903C154.992 101.971 155.241 102.051 155.483 102.159C155.589 102.205 155.687 102.271 155.788 102.324C155.991 102.436 156.188 102.546 156.371 102.685C156.472 102.761 156.57 102.843 156.666 102.928C156.843 103.079 157.007 103.243 157.161 103.417C157.206 103.47 157.261 103.509 157.309 103.566L176.213 127.185L234.853 127.185C241.184 127.185 246.335 132.336 246.335 138.667L246.337 157.178L315.081 157.178C317.797 157.178 320 159.379 320 162.097C320 164.815 317.797 167.016 315.081 167.016L315.078 167.016ZM105.731 137.019C104.841 137.019 104.09 137.77 104.09 138.66L104.09 185.532C104.09 186.422 104.841 187.173 105.731 187.173L211.617 187.173L171.486 137.019L105.731 137.019ZM236.494 138.66C236.494 137.77 235.744 137.019 234.853 137.019L184.09 137.019L224.216 187.169L234.851 187.169C235.741 187.169 236.492 186.418 236.492 185.528L236.489 138.66L236.494 138.66Z" fill="#000000" fill-rule="nonzero" opacity="1" stroke="none"/>
<path d="M316 162.287L316 218.285" fill="none" opacity="1" stroke="#000000" stroke-linecap="round" stroke-linejoin="round" stroke-width="8"/>
<path d="M24 162.287L24 218.285" fill="none" opacity="1" stroke="#000000" stroke-linecap="round" stroke-linejoin="round" stroke-width="8"/>
<path d="M315.995 238.285C321.476 238.285 326 233.762 326 228.285C326 222.809 321.466 218.285 315.986 218.285C310.514 218.285 306 222.809 306 228.285C306 233.762 310.524 238.285 315.995 238.285ZM315.995 236.177C311.558 236.177 308.011 232.664 308.011 228.285C308.011 223.916 311.558 220.393 315.986 220.393C320.422 220.393 323.989 223.916 323.999 228.285C324.009 232.664 320.432 236.177 315.995 236.177Z" fill="#000000" fill-rule="nonzero" opacity="1" stroke="#000000" stroke-linecap="round" stroke-linejoin="round" stroke-width="5"/>
<path d="M23.9952 238.285C29.4761 238.285 34 233.762 34 228.285C34 222.809 29.4664 218.285 23.9855 218.285C18.5143 218.285 14 222.809 14 228.285C14 233.762 18.5239 238.285 23.9952 238.285ZM23.9952 236.177C19.5582 236.177 16.0106 232.664 16.0106 228.285C16.0106 223.916 19.5582 220.393 23.9855 220.393C28.4224 220.393 31.9894 223.916 31.999 228.285C32.0087 232.664 28.4321 236.177 23.9952 236.177Z" fill="#000000" fill-rule="nonzero" opacity="1" stroke="#000000" stroke-linecap="round" stroke-linejoin="round" stroke-width="5"/>
</g>
</g>
</g>
</svg>
