<?xml version="1.0" encoding="UTF-8" standalone="no"?>
<!DOCTYPE svg PUBLIC "-//W3C//DTD SVG 1.1//EN" "http://www.w3.org/Graphics/SVG/1.1/DTD/svg11.dtd">
<!-- Created with Vectornator (http://vectornator.io/) -->
<svg height="100%" stroke-miterlimit="10" style="fill-rule:nonzero;clip-rule:evenodd;stroke-linecap:round;stroke-linejoin:round;" version="1.1" viewBox="0 0 600 600" width="100%" xml:space="preserve" xmlns="http://www.w3.org/2000/svg" xmlns:xlink="http://www.w3.org/1999/xlink">
<defs/>
<g id="Untitled">
<path d="M393.325 138.624L384.114 129.358C373.868 119.163 357.091 119.163 346.876 129.327L346.81 129.393C342.192 134.073 339.708 140.112 339.255 146.323L324.728 160.843C299.294 142.624 269.787 130.866 238.751 126.609L238.751 117.672C258.528 106.348 268.876 83.3008 263.872 60.8398C258.696 37.6058 238.317 20.7928 213.427 20.0078C189.431 20.2071 169.044 35.3558 162.536 57.5238C155.821 80.4108 165.524 104.958 186.095 117.251L186.259 126.626C154.509 131.005 124.357 143.22 98.5749 162.177L82.7429 146.341C82.321 140.091 79.7898 134.005 75.0945 129.325C64.8835 119.165 48.1025 119.165 37.8565 129.356L28.6456 138.622C18.4266 148.79 18.4346 165.587 28.6456 175.763C33.3136 180.415 39.3486 183.102 45.6146 183.419L60.9116 198.731C34.5246 232.442 20.0016 274.211 20.0016 317.431C20.0016 423.691 106.279 509.981 212.612 509.981C237.046 509.981 261.065 505.325 283.448 496.477C300.276 528.075 327.733 553.727 362.194 568.008C421.081 592.367 488.874 578.903 533.944 533.891C578.893 488.887 592.362 421.111 568.038 362.301C543.71 303.496 486.229 265.153 422.518 265.153C417.686 265.133 413.752 269.036 413.732 273.872C413.713 278.731 417.658 282.676 422.518 282.657C479.206 282.657 530.198 316.739 551.838 369.04C573.479 421.356 561.521 481.45 521.537 521.48C481.435 561.531 421.327 573.535 368.917 551.851C338.632 539.3 314.464 516.894 299.468 489.277C311.792 483.054 323.48 475.484 334.296 466.664C334.76 468.637 334.827 470.015 334.76 471.023C334.628 472.82 334.167 473.832 333.135 476.457C332.108 479.082 330.557 483.558 332.436 489.242C334.077 494.215 337.354 498.265 342.756 503.582C348.159 508.898 352.307 512.172 357.299 513.734C362.854 515.472 367.404 513.898 370.014 512.828C372.624 511.761 373.655 511.242 375.448 511.085C377.241 510.921 380.167 511.097 385.718 513.339C391.269 515.585 393.573 517.531 394.757 518.894C395.944 520.257 396.362 521.335 397.476 523.937C398.831 527.101 401.308 531.082 405.987 533.421C410.667 535.761 415.913 536.339 423.503 536.277C431.07 536.211 436.304 535.55 440.933 533.117C445.566 530.683 447.832 526.918 449.273 523.476C450.359 520.878 450.691 519.832 451.851 518.453C453.015 517.074 455.226 515.101 460.754 512.761L460.82 512.695C466.316 510.355 469.297 510.125 471.09 510.25C472.887 510.382 473.891 510.902 476.524 511.925C479.883 513.23 484.266 514.269 489.239 512.625C494.211 510.98 498.336 507.64 503.645 502.234C508.953 496.827 512.172 492.687 513.727 487.691C515.285 482.695 514.277 478.523 512.82 474.976C511.75 472.362 511.234 471.339 511.078 469.542C510.914 467.753 511.145 464.765 513.332 459.269L513.332 459.203C515.578 453.707 517.527 451.394 518.887 450.21C519.934 449.3 521.246 448.582 523.859 447.507C527.285 446.101 531.086 443.656 533.43 438.98C535.773 434.304 536.328 429.109 536.266 421.531C536.199 413.949 535.543 408.734 533.105 404.097C530.668 399.46 527.059 397.21 523.414 395.687C520.809 394.597 519.754 394.265 518.371 393.109C516.992 391.953 515.016 389.718 512.68 384.203C510.344 378.691 510.109 375.726 510.234 373.93C510.367 372.133 510.777 371.078 511.906 368.496C513.324 365.254 514.199 360.683 512.555 355.711C510.91 350.742 507.617 346.688 502.215 341.375C496.812 336.059 492.684 332.781 487.688 331.223C482.692 329.66 478.375 330.774 474.958 332.196C472.348 333.266 471.384 333.715 469.591 333.871C467.798 334.035 464.821 333.86 459.271 331.618C453.72 329.371 451.415 327.426 450.231 326.063C449.044 324.7 448.692 323.692 447.583 321.09C446.196 317.844 443.665 313.926 438.985 311.586C434.306 309.246 429.079 308.688 421.485 308.75C414.384 308.817 409.376 309.34 404.958 311.414C403.658 269.582 388.786 229.414 362.833 196.954L376.435 183.392C382.842 183.002 388.673 180.373 393.318 175.748C403.529 165.576 403.537 148.779 393.318 138.611L393.325 138.624ZM246.765 64.6508C249.269 75.8888 246.062 87.2558 238.749 95.4318L238.749 89.9787C238.749 75.5807 226.851 63.7597 212.464 63.7597C198.081 63.7597 186.249 75.5797 186.249 89.9787L186.249 94.7639C178.792 86.0217 175.948 73.9629 179.327 62.4589C183.667 47.7009 197.182 37.5799 213.206 37.4429C229.835 37.9663 243.308 49.1419 246.761 64.6459L246.765 64.6508ZM221.249 89.9788L221.249 124.999C215.245 124.651 209.335 124.866 203.749 125.014L203.749 89.9754C203.749 84.9832 207.483 81.1902 212.464 81.1902C217.444 81.1902 221.249 84.9832 221.249 89.9754L221.249 89.9788ZM63.3089 153.44L52.6289 164.104C49.3477 166.772 44.0742 166.518 40.9729 163.42C37.7112 160.155 37.426 154.557 41.0041 151.029L50.215 141.717C54.7345 137.658 59.9806 139.021 62.672 141.717C66.0001 145.033 66.0353 150.131 63.3048 153.444L63.3089 153.44ZM368.579 163.42L368.579 163.373C365.216 160.073 361.907 156.713 358.583 153.373C355.864 149.885 356.122 144.975 359.282 141.717C361.051 139.983 363.27 139.12 365.485 139.12C367.7 139.12 369.919 139.987 371.688 141.717L380.95 151.034C381.673 151.44 386.465 157.331 380.981 163.425C377.54 166.741 372.165 167.007 368.575 163.425L368.579 163.42ZM336.349 193.588C369.13 226.428 387.634 270.99 387.634 317.438C387.634 321.993 387.47 326.481 387.138 330.942C386.274 331.384 385.329 331.821 384.216 332.29C378.72 334.63 375.743 334.876 373.946 334.751C372.36 334.653 371.329 334.184 369.313 333.384C369.864 328.067 370.133 322.751 370.133 317.439C370.133 275.646 353.531 235.552 324.008 205.999C294.379 176.452 254.352 159.815 212.598 159.815C125.625 159.815 54.9984 230.506 54.9984 317.435C54.9984 404.353 125.623 474.985 212.598 474.985C232.614 474.985 252.235 471.153 270.512 463.911C272.055 469.583 273.911 475.149 276.067 480.575C255.985 488.379 234.469 492.489 212.598 492.489C115.707 492.489 37.4881 414.243 37.4881 317.439C39.4217 258.564 60.1331 224.154 88.8431 193.589C121.616 160.757 166.155 142.296 212.603 142.296C259.033 142.296 303.451 160.761 336.353 193.589L336.349 193.588ZM76.5789 164.975L84.8836 173.249C80.1883 177.323 76.3484 181.346 72.3566 185.437L64.2394 177.319C68.4777 173.132 72.8878 168.698 76.5794 164.979L76.5789 164.975ZM345.399 164.975C349.848 169.557 353.61 173.225 357.739 177.315L351.297 183.792C347.297 179.518 342.504 175.292 338.617 171.761L345.399 164.975ZM326.087 394.755C324.72 395.943 323.724 396.392 321.114 397.474C317.427 398.997 313.903 401.31 311.559 405.986C309.7 409.697 309.02 413.802 308.841 419.111C301.048 426.494 292.489 432.884 283.361 438.236C282.783 433.083 282.486 427.865 282.486 422.595L282.486 373.591L293.783 384.923C297.205 388.364 302.771 388.364 306.189 384.923C309.583 381.509 309.583 375.997 306.189 372.583L279.908 346.298C276.494 342.903 270.982 342.903 267.568 346.298L241.283 372.583C237.888 375.997 237.888 381.509 241.283 384.923C244.701 388.352 250.255 388.352 253.674 384.923L264.986 373.626L264.986 422.595C264.986 430.696 265.607 438.681 266.814 446.525C252.462 452.56 237.111 456.197 221.392 457.189L221.392 439.959C221.372 435.127 217.439 431.224 212.607 431.24C207.794 431.248 203.892 435.142 203.872 439.959L203.872 457.205C133.325 452.892 77.0922 396.643 72.7822 326.145L90.0092 326.145C94.8139 326.125 98.7045 322.235 98.724 317.426C98.7435 312.594 94.8412 308.66 90.0092 308.641L72.7822 308.641C77.1181 238.153 133.344 181.901 203.872 177.581L203.872 194.811C203.853 199.651 207.767 203.588 212.607 203.596C217.466 203.616 221.411 199.67 221.392 194.811L221.392 177.581C255.302 179.71 287.392 194.112 311.673 218.327C335.841 242.518 350.224 274.671 352.345 308.639L335.126 308.651C330.266 308.631 326.321 312.576 326.341 317.436C326.36 322.268 330.294 326.17 335.126 326.155L352.353 326.155C352.189 328.869 351.966 331.565 351.634 334.256C348.31 336.127 345.122 338.885 341.329 342.752C336.02 348.158 332.821 352.303 331.263 357.295C329.454 363.1 331.064 367.471 332.154 370.08C333.224 372.69 333.74 373.651 333.896 375.447C334.06 377.244 333.876 380.217 331.673 385.771C329.443 391.33 327.454 393.572 326.083 394.764L326.087 394.755ZM260.021 224.915C257.701 224.904 255.466 225.81 253.818 227.446L210.341 270.997C202.114 271.505 194.079 274.861 187.868 281.134C174.259 294.732 174.259 317.017 187.868 330.614C201.388 344.29 223.723 344.235 237.341 330.614C243.61 324.353 246.977 316.251 247.474 308.001L290.88 264.587C294.274 261.173 294.274 255.662 290.88 252.247L266.153 227.446C264.52 225.829 262.317 224.923 260.016 224.915L260.021 224.915ZM260.021 246.04L272.361 258.38L242.713 288.036C241.256 285.567 239.467 283.247 237.346 281.13C235.209 278.993 232.857 277.196 230.357 275.728L260.021 246.04ZM225.005 318.27C218.091 325.188 207.056 325.13 200.278 318.27C193.356 311.356 193.356 300.383 200.278 293.469C206.954 286.731 218.216 286.672 225.005 293.469C227.935 296.395 229.614 300.043 230.134 304.903C230.165 310.423 228.431 314.849 225.005 318.27ZM361.915 349.309C363.868 350.091 367.665 351.825 372.724 352.18C377.763 352.532 383.763 351.438 391.009 348.368C398.31 345.274 403.239 341.723 406.509 337.841C409.302 334.849 411.317 329.923 412.216 327.388C412.575 327.224 415.298 326.341 421.614 326.286C427.962 326.22 430.606 326.962 431.192 327.251C432.563 331.239 434.708 334.919 437.048 337.583C440.376 341.407 445.345 344.888 452.685 347.856C460.025 350.825 465.787 351.821 471.091 351.344C475.165 351.212 479.856 349.278 482.454 347.977C483.059 348.075 485.442 349.415 489.958 353.856C494.469 358.294 495.684 360.329 495.966 361.239C495.251 363.091 492.852 368.508 492.798 372.723C492.442 377.782 493.45 383.77 496.54 391.063C499.63 398.36 503.247 403.301 507.134 406.567C511.02 409.833 514.978 411.145 516.704 411.864C517.212 412.063 517.442 412.161 517.583 412.223C517.782 412.594 518.716 415.36 518.77 421.692C518.837 428.032 517.97 430.837 517.798 431.176C517.665 431.196 517.415 431.274 516.892 431.508C515.188 432.255 511.22 433.692 507.392 437.012C503.56 440.337 500.11 445.294 497.122 452.633L497.122 452.7C494.165 460.047 493.188 466.055 493.637 471.106C493.801 475.176 495.754 479.653 497.012 482.473C496.68 483.356 495.625 485.457 491.192 489.977C486.762 494.492 484.184 496.066 483.743 495.984C480.567 494.649 476.641 493.094 472.259 492.813C467.2 492.457 461.267 493.527 453.989 496.625C446.684 499.719 441.759 503.27 438.489 507.152C435.684 510.144 434.137 514.152 432.797 517.629C432.465 517.793 429.68 518.738 423.364 518.789C417.016 518.856 414.172 517.926 413.786 517.738C412.371 513.75 410.395 510.328 407.93 507.406C404.602 503.582 399.633 500.121 392.293 497.152C384.953 494.184 378.938 493.207 373.887 493.649C368.836 494.09 365.149 495.918 363.426 496.621C362.914 496.82 362.668 496.957 362.555 497.031C362.543 497.024 362.539 497.02 362.524 497.016C362.16 496.918 359.535 495.582 355.02 491.137C350.508 486.695 349.141 484.129 349.219 483.317C350.094 481.129 351.825 477.395 352.184 472.337C352.539 467.278 351.528 461.294 348.442 453.997C345.352 446.7 341.735 441.759 337.848 438.493C333.961 435.227 330.074 433.848 327.867 432.965C327.223 432.485 326.379 429.891 326.242 424.239C326.406 423.254 326.406 422.246 326.242 421.266C326.375 416.379 327.098 414.184 327.707 413.672C329.855 412.739 333.758 411.324 337.586 408C341.414 404.676 344.867 399.703 347.891 392.328C350.879 384.949 351.789 378.937 351.344 373.887C351.278 369.786 348.371 363.36 347.969 362.539C348.102 362.16 349.426 359.535 353.856 355.02C357.028 351.789 359.227 350.203 360.367 349.5M378.719 422.605C378.719 434.23 383.442 445.316 391.586 453.492C399.797 461.734 410.977 466.277 422.516 466.277C434.059 466.277 445.188 461.734 453.395 453.492C461.54 445.316 466.247 434.23 466.247 422.605C466.247 410.992 461.54 399.894 453.395 391.718L453.395 391.656C445.188 383.433 434.063 378.871 422.516 378.871C410.965 378.871 399.789 383.433 391.586 391.691C383.442 399.902 378.719 410.996 378.719 422.609L378.719 422.605ZM422.52 396.367C429.403 396.367 436.2 399.188 441.063 404.059C445.985 409 448.755 415.692 448.755 422.602C448.755 429.531 445.985 436.137 441.063 441.079C436.208 445.954 429.411 448.77 422.52 448.77C415.629 448.77 408.836 445.954 403.977 441.079C399.055 436.137 396.235 429.532 396.235 422.602C396.235 415.688 399.055 408.997 403.977 404.059C408.837 399.188 415.637 396.367 422.52 396.367ZM321.57 449.285C323.539 450.109 324.617 450.504 325.621 451.149C315.269 459.899 303.992 467.344 292.059 473.419C289.911 467.915 288.102 462.247 286.657 456.462C295.376 451.809 303.841 446.235 311.485 440.032C314.223 446.059 318.965 448.196 321.571 449.282L321.57 449.285Z" fill="#000000" fill-rule="nonzero" opacity="1" stroke="none"/>
</g>
</svg>
